<?xml version="1.0" encoding="UTF-8"?>
<svg version="1.1" xmlns="http://www.w3.org/2000/svg" width="44" height="44" viewBox="0 0 1030 1038">
<path d="M0 0 C2.38104881 -0.01224191 4.76209637 -0.02472938 7.1431427 -0.03744507 C12.0935915 -0.05969063 17.04388891 -0.06945056 21.99438477 -0.07177734 C27.00262683 -0.07600371 32.00982981 -0.10384297 37.01782227 -0.15380859 C89.92520535 -0.67278608 89.92520535 -0.67278608 115.33203125 7.5390625 C117.17822358 8.08023546 119.02621966 8.61530448 120.8762207 9.14331055 C165.55836656 21.91801744 165.55836656 21.91801744 178.33203125 37.5390625 C179.13640625 38.3434375 179.94078125 39.1478125 180.76953125 39.9765625 C182.20187086 41.40890211 183.62823251 42.84752037 185.03125 44.30859375 C189.5403026 48.94569247 194.30372456 53.07094883 199.34375 57.12109375 C202.54808371 59.71388142 205.69381621 62.36710714 208.83203125 65.0390625 C213.67204015 69.15282135 218.56453221 73.19443039 223.4921875 77.203125 C227.33766327 80.36625362 231.1321058 83.58813389 234.91796875 86.82226562 C237.13474133 88.71011559 239.33859665 90.54374129 241.7109375 92.234375 C242.24589844 92.66492188 242.78085937 93.09546875 243.33203125 93.5390625 C243.33203125 94.1990625 243.33203125 94.8590625 243.33203125 95.5390625 C243.87214844 95.75304687 244.41226563 95.96703125 244.96875 96.1875 C248.18233285 98.02535069 250.58166795 100.53541231 253.14453125 103.1640625 C253.67933105 103.70748291 254.21413086 104.25090332 254.76513672 104.81079102 C283.56117496 134.25751317 303.12504829 172.22056537 317.33203125 210.5390625 C317.71955566 211.57579102 318.10708008 212.61251953 318.50634766 213.68066406 C344.5436484 283.71622836 358.62587731 355.67147139 363.77734375 429.98632812 C364.837443 445.18771785 366.04411906 460.36641067 367.45703125 475.5390625 C367.54166626 476.45093323 367.62630127 477.36280396 367.71350098 478.30230713 C368.18130761 483.3337746 368.65425015 488.36474595 369.12957764 493.39550781 C371.42651018 517.71515537 372.84471072 542.09968188 372.33203125 566.5390625 C372.31414551 567.41272461 372.29625977 568.28638672 372.27783203 569.18652344 C371.79324601 589.3410573 369.80830737 609.09574006 364.87011719 628.67407227 C364.65645508 629.53315186 364.44279297 630.39223145 364.22265625 631.27734375 C364.02704102 632.03055908 363.83142578 632.78377441 363.62988281 633.55981445 C363.14811052 635.7437701 363.14811052 635.7437701 364.33203125 638.5390625 C366.12849042 639.88715547 366.12849042 639.88715547 368.3828125 641.0703125 C369.22134766 641.5456543 370.05988281 642.02099609 370.92382812 642.51074219 C371.82166016 643.01508789 372.71949219 643.51943359 373.64453125 644.0390625 C396.56154416 657.37067236 396.56154416 657.37067236 400.33203125 669.5390625 C400.55117188 670.21066406 400.7703125 670.88226562 400.99609375 671.57421875 C403.18482103 679.61414363 404.06806403 689.94230547 400.55859375 697.69921875 C395.62580877 705.09839622 388.58287945 708.88934654 380.33203125 711.5390625 C379.419375 711.87164063 378.50671875 712.20421875 377.56640625 712.546875 C355.64611586 719.27121529 330.97735747 718.81712235 308.33203125 718.5390625 C282.80243836 717.93381458 282.80243836 717.93381458 258.83203125 725.7265625 C247.89523393 730.96921335 236.95603262 735.10654519 225.33203125 738.5390625 C224.48560059 738.78962402 223.63916992 739.04018555 222.76708984 739.29833984 C216.32207249 741.17828907 209.8402486 742.89245469 203.33203125 744.5390625 C202.23310547 744.8175 201.13417969 745.0959375 200.00195312 745.3828125 C181.0565463 750.12180873 162.03148574 753.79558006 142.74707031 756.83496094 C139.88085466 757.28771968 137.01889508 757.75885363 134.15917969 758.25097656 C111.66548927 762.1124254 89.36645122 763.33591763 66.55371094 763.81933594 C44.74203271 763.34312284 44.74203271 763.34312284 25.1953125 771.1796875 C16.93750362 777.0597555 6.20472966 775.48265709 -3.48046875 775.2890625 C-5.70475168 775.26715849 -7.92903555 775.24535009 -10.15332031 775.22363281 C-31.65609432 774.90294644 -52.86933089 772.6812793 -74.16955566 769.8651123 C-77.31644463 769.45443461 -80.46606807 769.06879567 -83.61645508 768.68603516 C-87.01000741 768.27268115 -90.40151578 767.84432787 -93.79296875 767.4140625 C-95.52401855 767.19508301 -95.52401855 767.19508301 -97.29003906 766.97167969 C-107.26602013 765.62422013 -116.77795527 763.42258946 -126.16796875 759.7890625 C-145.81077504 752.61080041 -166.66359147 748.84561919 -187.0786438 744.52526855 C-204.36314529 740.86433326 -221.55781089 736.94697364 -238.66796875 732.5390625 C-240.39950195 732.09409424 -240.39950195 732.09409424 -242.16601562 731.64013672 C-257.40416285 727.65953263 -272.22720674 722.72549205 -287.04296875 717.4140625 C-287.86935852 717.11828308 -288.69574829 716.82250366 -289.54718018 716.51776123 C-316.89740686 706.68848577 -346.17773358 695.95390099 -359.453125 667.97924805 C-372.27511887 639.52177627 -371.93411898 613.63681252 -361.4453125 584.5234375 C-354.94030173 566.42799736 -351.49868016 549.57636928 -351.53515625 530.27734375 C-351.53419952 529.12904587 -351.5332428 527.98074799 -351.53225708 526.7976532 C-351.5315801 524.37478582 -351.53340054 521.95191657 -351.53759766 519.52905273 C-351.54288823 515.90669434 -351.53766955 512.28446363 -351.53125 508.66210938 C-351.52794609 496.58073946 -351.73174864 484.54418688 -352.29824829 472.47624207 C-352.83246343 460.70847005 -352.91184492 448.94258323 -352.91796875 437.1640625 C-352.91898087 435.37875122 -352.91898087 435.37875122 -352.92001343 433.55737305 C-352.90083379 412.00877741 -351.96658602 390.68183322 -349.92443848 369.23376465 C-349.65560808 366.40919015 -349.39367738 363.58401939 -349.13183594 360.75878906 C-340.91536762 273.06497364 -318.92409808 196.06375687 -265.66796875 124.5390625 C-265.1147998 123.7951123 -264.56163086 123.05116211 -263.99169922 122.28466797 C-258.05655547 114.33426462 -252.07845773 106.55971045 -245.27734375 99.32421875 C-243.59757338 97.62055848 -243.59757338 97.62055848 -242.66796875 95.5390625 C-242.00796875 95.5390625 -241.34796875 95.5390625 -240.66796875 95.5390625 C-240.45011719 94.99636719 -240.23226562 94.45367187 -240.0078125 93.89453125 C-238.21452508 90.7419006 -235.79696841 88.37212387 -233.23046875 85.8515625 C-232.69478271 85.32119385 -232.15909668 84.7908252 -231.60717773 84.24438477 C-227.4396031 80.17377329 -223.06940766 76.43821552 -218.5078125 72.8125 C-215.93838638 70.75554539 -213.43016202 68.64797618 -210.93212891 66.50610352 C-204.03188268 60.59351541 -196.98235716 54.93154225 -189.66796875 49.5390625 C-189.07709473 49.10094238 -188.4862207 48.66282227 -187.87744141 48.21142578 C-152.29579458 22.07806603 -110.62619706 12.26024755 -67.66796875 5.9140625 C-67.00381958 5.81560028 -66.33967041 5.71713806 -65.65539551 5.61569214 C-61.52042381 5.00773989 -57.38128167 4.43838171 -53.23866844 3.88514042 C-51.49549808 3.65046782 -49.7528939 3.41155796 -48.01082802 3.16882229 C-31.95723502 0.95024467 -16.196982 0.03787589 0 0 Z " fill="#6C6B7D" transform="translate(498.66796875,132.4609375)"/>
<path d="M0 0 C27.55345905 23.74332566 43.27672519 55.40305605 51.63964844 90.4296875 C52.3029323 93.14948463 52.99933445 95.85970597 53.69921875 98.5703125 C55.26287237 104.64054071 56.7654838 110.72367379 58.22265625 116.8203125 C58.40779785 117.58456543 58.59293945 118.34881836 58.78369141 119.13623047 C60.96975068 128.44932249 61.51257809 137.57299815 61.59765625 147.1328125 C61.6116748 148.20644043 61.62569336 149.28006836 61.64013672 150.38623047 C61.50170803 173.44703076 49.46427334 197.92951521 34.22265625 214.8203125 C33.51496094 215.66980469 32.80726563 216.51929688 32.078125 217.39453125 C21.66646986 229.64464081 9.80103425 235.87090327 -4.77734375 241.8203125 C-5.74027344 242.23152344 -6.70320313 242.64273437 -7.6953125 243.06640625 C-13.20247232 245.37528076 -18.83721884 247.10841545 -24.5546875 248.8203125 C-27.50309458 249.73521215 -30.38522602 250.74260924 -33.27734375 251.8203125 C-38.02639372 253.5792199 -42.81656343 255.0917297 -47.6640625 256.5546875 C-52.0915567 257.9029309 -56.4930575 259.33069681 -60.89770508 260.75146484 C-81.96376209 267.53936486 -81.96376209 267.53936486 -90.77734375 269.8203125 C-91.54143555 270.02301758 -92.30552734 270.22572266 -93.09277344 270.43457031 C-125.17547495 278.81610027 -158.78446125 283.7736835 -191.77734375 286.8203125 C-193.0813916 286.94744629 -194.38543945 287.07458008 -195.72900391 287.20556641 C-216.40589535 289.22002732 -237.00602298 290.41954403 -257.77734375 290.8203125 C-257.88618896 289.93263184 -257.99503418 289.04495117 -258.10717773 288.13037109 C-258.26516846 286.96328613 -258.42315918 285.79620117 -258.5859375 284.59375 C-258.73603271 283.43794434 -258.88612793 282.28213867 -259.04077148 281.09130859 C-260.79260626 273.31169894 -267.5912542 268.90539798 -273.76171875 264.4609375 C-276.87927047 261.9233954 -278.50712048 259.63098232 -279.77734375 255.8203125 C-281.12188373 241.67678616 -276.45650838 227.22166735 -273.25146484 213.58056641 C-271.2844705 205.16547009 -269.47986429 196.72498548 -267.72134399 188.26470947 C-264.81903155 174.32906148 -261.5845596 160.53965632 -257.77734375 146.8203125 C-257.49310547 145.7772998 -257.20886719 144.73428711 -256.91601562 143.65966797 C-252.16082541 126.24365541 -246.68629497 109.12932213 -240.87982178 92.04328918 C-239.24368923 87.22216943 -237.64409428 82.39004144 -236.0625 77.55078125 C-235.40570686 75.5492004 -234.74850439 73.54775431 -234.09124756 71.54632568 C-233.49076071 69.7119826 -232.89588744 67.87580473 -232.30126953 66.03955078 C-222.85008766 37.36947783 -207.96091045 15.55918964 -180.56201172 1.69970703 C-164.27397035 -6.42369588 -148.45584121 -12.91690782 -130.65966797 -16.75488281 C-128.11158747 -17.329936 -125.60599931 -18.04185152 -123.08984375 -18.7421875 C-83.20245473 -28.51271886 -32.97417604 -27.29971668 0 0 Z " fill="#C2D1E8" transform="translate(788.77734375,592.1796875)"/>
<path d="M0 0 C2.38104881 -0.01224191 4.76209637 -0.02472938 7.1431427 -0.03744507 C12.0935915 -0.05969063 17.04388891 -0.06945056 21.99438477 -0.07177734 C27.00262683 -0.07600371 32.00982981 -0.10384297 37.01782227 -0.15380859 C89.92520535 -0.67278608 89.92520535 -0.67278608 115.33203125 7.5390625 C117.17822358 8.08023546 119.02621966 8.61530448 120.8762207 9.14331055 C165.55836656 21.91801744 165.55836656 21.91801744 178.33203125 37.5390625 C179.13640625 38.3434375 179.94078125 39.1478125 180.76953125 39.9765625 C182.20187086 41.40890211 183.62823251 42.84752037 185.03125 44.30859375 C189.5403026 48.94569247 194.30372456 53.07094883 199.34375 57.12109375 C202.54808371 59.71388142 205.69381621 62.36710714 208.83203125 65.0390625 C213.67204015 69.15282135 218.56453221 73.19443039 223.4921875 77.203125 C227.33766327 80.36625362 231.1321058 83.58813389 234.91796875 86.82226562 C237.13474133 88.71011559 239.33859665 90.54374129 241.7109375 92.234375 C242.24589844 92.66492188 242.78085937 93.09546875 243.33203125 93.5390625 C243.33203125 94.1990625 243.33203125 94.8590625 243.33203125 95.5390625 C243.87214844 95.75304687 244.41226563 95.96703125 244.96875 96.1875 C248.18233285 98.02535069 250.58166795 100.53541231 253.14453125 103.1640625 C253.67933105 103.70748291 254.21413086 104.25090332 254.76513672 104.81079102 C283.56117496 134.25751317 303.12504829 172.22056537 317.33203125 210.5390625 C317.71955566 211.57579102 318.10708008 212.61251953 318.50634766 213.68066406 C344.5436484 283.71622836 358.62587731 355.67147139 363.77734375 429.98632812 C364.837443 445.18771785 366.04411906 460.36641067 367.45703125 475.5390625 C367.54166626 476.45093323 367.62630127 477.36280396 367.71350098 478.30230713 C368.18130761 483.3337746 368.65425015 488.36474595 369.12957764 493.39550781 C371.42651018 517.71515537 372.84471072 542.09968188 372.33203125 566.5390625 C372.31414551 567.41272461 372.29625977 568.28638672 372.27783203 569.18652344 C371.79324601 589.3410573 369.80830737 609.09574006 364.87011719 628.67407227 C364.65645508 629.53315186 364.44279297 630.39223145 364.22265625 631.27734375 C364.02704102 632.03055908 363.83142578 632.78377441 363.62988281 633.55981445 C363.14811052 635.7437701 363.14811052 635.7437701 364.33203125 638.5390625 C366.12849042 639.88715547 366.12849042 639.88715547 368.3828125 641.0703125 C369.22134766 641.5456543 370.05988281 642.02099609 370.92382812 642.51074219 C371.82166016 643.01508789 372.71949219 643.51943359 373.64453125 644.0390625 C396.56154416 657.37067236 396.56154416 657.37067236 400.33203125 669.5390625 C400.55117188 670.21066406 400.7703125 670.88226562 400.99609375 671.57421875 C403.18482103 679.61414363 404.06806403 689.94230547 400.55859375 697.69921875 C395.62580877 705.09839622 388.58287945 708.88934654 380.33203125 711.5390625 C379.419375 711.87164063 378.50671875 712.20421875 377.56640625 712.546875 C355.64611586 719.27121529 330.97735747 718.81712235 308.33203125 718.5390625 C282.80243836 717.93381458 282.80243836 717.93381458 258.83203125 725.7265625 C247.89523393 730.96921335 236.95603262 735.10654519 225.33203125 738.5390625 C224.48560059 738.78962402 223.63916992 739.04018555 222.76708984 739.29833984 C216.32207249 741.17828907 209.8402486 742.89245469 203.33203125 744.5390625 C202.23310547 744.8175 201.13417969 745.0959375 200.00195312 745.3828125 C181.0565463 750.12180873 162.03148574 753.79558006 142.74707031 756.83496094 C139.88085466 757.28771968 137.01889508 757.75885363 134.15917969 758.25097656 C111.66548927 762.1124254 89.36645122 763.33591763 66.55371094 763.81933594 C44.74203271 763.34312284 44.74203271 763.34312284 25.1953125 771.1796875 C16.93750362 777.0597555 6.20472966 775.48265709 -3.48046875 775.2890625 C-5.70475168 775.26715849 -7.92903555 775.24535009 -10.15332031 775.22363281 C-31.65609432 774.90294644 -52.86933089 772.6812793 -74.16955566 769.8651123 C-77.31644463 769.45443461 -80.46606807 769.06879567 -83.61645508 768.68603516 C-87.01000741 768.27268115 -90.40151578 767.84432787 -93.79296875 767.4140625 C-95.52401855 767.19508301 -95.52401855 767.19508301 -97.29003906 766.97167969 C-107.26602013 765.62422013 -116.77795527 763.42258946 -126.16796875 759.7890625 C-145.81077504 752.61080041 -166.66359147 748.84561919 -187.0786438 744.52526855 C-204.36314529 740.86433326 -221.55781089 736.94697364 -238.66796875 732.5390625 C-240.39950195 732.09409424 -240.39950195 732.09409424 -242.16601562 731.64013672 C-257.40416285 727.65953263 -272.22720674 722.72549205 -287.04296875 717.4140625 C-287.86935852 717.11828308 -288.69574829 716.82250366 -289.54718018 716.51776123 C-316.89740686 706.68848577 -346.17773358 695.95390099 -359.453125 667.97924805 C-372.27511887 639.52177627 -371.93411898 613.63681252 -361.4453125 584.5234375 C-354.94030173 566.42799736 -351.49868016 549.57636928 -351.53515625 530.27734375 C-351.53419952 529.12904587 -351.5332428 527.98074799 -351.53225708 526.7976532 C-351.5315801 524.37478582 -351.53340054 521.95191657 -351.53759766 519.52905273 C-351.54288823 515.90669434 -351.53766955 512.28446363 -351.53125 508.66210938 C-351.52794609 496.58073946 -351.73174864 484.54418688 -352.29824829 472.47624207 C-352.83246343 460.70847005 -352.91184492 448.94258323 -352.91796875 437.1640625 C-352.91898087 435.37875122 -352.91898087 435.37875122 -352.92001343 433.55737305 C-352.90083379 412.00877741 -351.96658602 390.68183322 -349.92443848 369.23376465 C-349.65560808 366.40919015 -349.39367738 363.58401939 -349.13183594 360.75878906 C-340.91536762 273.06497364 -318.92409808 196.06375687 -265.66796875 124.5390625 C-265.1147998 123.7951123 -264.56163086 123.05116211 -263.99169922 122.28466797 C-258.05655547 114.33426462 -252.07845773 106.55971045 -245.27734375 99.32421875 C-243.59757338 97.62055848 -243.59757338 97.62055848 -242.66796875 95.5390625 C-242.00796875 95.5390625 -241.34796875 95.5390625 -240.66796875 95.5390625 C-240.45011719 94.99636719 -240.23226562 94.45367187 -240.0078125 93.89453125 C-238.21452508 90.7419006 -235.79696841 88.37212387 -233.23046875 85.8515625 C-232.69478271 85.32119385 -232.15909668 84.7908252 -231.60717773 84.24438477 C-227.4396031 80.17377329 -223.06940766 76.43821552 -218.5078125 72.8125 C-215.93838638 70.75554539 -213.43016202 68.64797618 -210.93212891 66.50610352 C-204.03188268 60.59351541 -196.98235716 54.93154225 -189.66796875 49.5390625 C-189.07709473 49.10094238 -188.4862207 48.66282227 -187.87744141 48.21142578 C-152.29579458 22.07806603 -110.62619706 12.26024755 -67.66796875 5.9140625 C-67.00381958 5.81560028 -66.33967041 5.71713806 -65.65539551 5.61569214 C-61.52042381 5.00773989 -57.38128167 4.43838171 -53.23866844 3.88514042 C-51.49549808 3.65046782 -49.7528939 3.41155796 -48.01082802 3.16882229 C-31.95723502 0.95024467 -16.196982 0.03787589 0 0 Z M-20.66796875 12.5390625 C-22.40409424 12.73242188 -22.40409424 12.73242188 -24.17529297 12.9296875 C-50.06041142 15.90016729 -75.41379203 21.20330708 -100.66796875 27.5390625 C-101.33892578 27.70615723 -102.00988281 27.87325195 -102.70117188 28.04541016 C-113.49686567 30.755316 -124.110475 34.02513366 -134.66796875 37.5390625 C-135.70655029 37.88275879 -135.70655029 37.88275879 -136.76611328 38.23339844 C-165.53194924 47.91333054 -190.82709832 66.27920136 -212.82421875 86.88671875 C-216.44384825 90.26271934 -220.16741896 93.51421339 -223.90234375 96.76171875 C-225.90289011 98.35799792 -225.90289011 98.35799792 -225.66796875 100.5390625 C-226.65796875 100.8690625 -227.64796875 101.1990625 -228.66796875 101.5390625 C-230.14797073 102.92224115 -230.14797073 102.92224115 -231.60546875 104.7265625 C-232.2190625 105.45230469 -232.83265625 106.17804688 -233.46484375 106.92578125 C-234.191875 107.78816406 -234.91890625 108.65054688 -235.66796875 109.5390625 C-236.56716824 110.56801903 -237.4683342 111.59525924 -238.37109375 112.62109375 C-253.77775824 130.20671179 -267.00842117 149.29238462 -278.66796875 169.5390625 C-279.11897949 170.31540039 -279.56999023 171.09173828 -280.03466797 171.89160156 C-307.66331165 219.77626067 -320.49386081 272.37018415 -328.66796875 326.5390625 C-328.82425751 327.56824799 -328.82425751 327.56824799 -328.98370361 328.6182251 C-331.99767759 348.46451598 -331.99767759 348.46451598 -333.39453125 368.47265625 C-333.55503861 372.02493765 -334.0860546 375.4859126 -334.62109375 379 C-335.78394689 386.88765482 -336.35813906 394.77285404 -336.79296875 402.7265625 C-336.8349942 403.47052277 -336.87701965 404.21448303 -336.9203186 404.98098755 C-337.5666085 416.64646613 -337.8564398 428.29375761 -337.85546875 439.9765625 C-337.85637512 440.66753021 -337.85728149 441.35849792 -337.85821533 442.07040405 C-337.85703266 449.98259868 -337.61723025 457.85109317 -337.1640625 465.75 C-336.49303688 477.79344343 -336.51750843 489.83534298 -336.53759766 501.89428711 C-336.54297497 505.73099693 -336.53760986 509.5675905 -336.53125 513.40429688 C-336.52519648 530.42962659 -336.6332805 547.26010881 -339.41796875 564.1015625 C-339.6802124 565.70124878 -339.6802124 565.70124878 -339.94775391 567.33325195 C-342.12804267 579.99290056 -345.97235143 591.59661217 -351.3359375 603.2578125 C-357.32631908 618.01417767 -356.83153323 636.94995737 -351.3671875 651.80859375 C-347.83306684 659.90734908 -343.50086703 668.86325984 -337.66796875 675.5390625 C-337.00796875 675.5390625 -336.34796875 675.5390625 -335.66796875 675.5390625 C-335.41917969 676.11140625 -335.17039062 676.68375 -334.9140625 677.2734375 C-329.79692236 686.57732867 -318.4204067 695.29995785 -308.40869141 698.41308594 C-305.46547528 699.24616698 -302.50649123 700.01182766 -299.54394531 700.77294922 C-294.09939743 702.22328803 -288.70584504 703.85545474 -283.3013916 705.44754028 C-264.13155251 711.09345579 -244.80287116 716.06470341 -225.41796875 720.9140625 C-224.46397186 721.15273041 -223.50997498 721.39139832 -222.52706909 721.63729858 C-194.07309158 728.74287486 -165.46541468 735.21676506 -136.65234375 740.70703125 C-135.80897461 740.86840576 -134.96560547 741.02978027 -134.09667969 741.19604492 C-131.56277074 741.55392008 -129.22263507 741.70769995 -126.66796875 741.5390625 C-124.99880205 739.96703858 -124.99880205 739.96703858 -123.79296875 737.7265625 C-123.28636719 736.90542969 -122.77976562 736.08429687 -122.2578125 735.23828125 C-121.73316406 734.34753906 -121.20851563 733.45679688 -120.66796875 732.5390625 C-111.94464051 717.84603493 -101.44028601 707.64720856 -84.92163086 702.34838867 C-79.63027232 701.03219947 -74.53250244 700.98908086 -69.10546875 701.1015625 C-67.9772168 701.1133252 -66.84896484 701.12508789 -65.68652344 701.13720703 C-56.50468587 701.32334295 -47.69539294 702.43535897 -38.69335938 704.171875 C-35.70053518 704.71445065 -32.68725914 705.05230421 -29.66796875 705.4140625 C-23.87278128 706.22826239 -18.26601894 707.51837894 -12.60546875 708.9765625 C-11.39020508 709.284729 -11.39020508 709.284729 -10.15039062 709.59912109 C-5.8539475 710.7488608 -2.43363745 712.09742854 1.33203125 714.5390625 C1.99203125 714.5390625 2.65203125 714.5390625 3.33203125 714.5390625 C3.48236816 713.03061768 3.48236816 713.03061768 3.63574219 711.49169922 C7.45643524 673.44759454 7.45643524 673.44759454 11.33203125 655.5390625 C11.59951172 654.29801758 11.86699219 653.05697266 12.14257812 651.77832031 C13.04547375 647.61200287 13.96560541 643.44964835 14.89453125 639.2890625 C15.04242096 638.62594055 15.19031067 637.9628186 15.34268188 637.27960205 C16.8969551 630.35003059 18.55370445 623.50253893 20.66430664 616.72070312 C21.65675358 613.47810502 22.46170028 610.20779392 23.26953125 606.9140625 C23.43936523 606.22860352 23.60919922 605.54314453 23.78417969 604.83691406 C24.6004853 601.54000507 25.40361369 598.24042444 26.1953125 594.9375 C29.2167899 582.50551808 32.80306162 570.2387375 36.35351562 557.94921875 C37.24055713 554.85785253 38.11144684 551.76270677 38.97265625 548.6640625 C43.7915152 531.361113 49.51755876 514.73832423 57.33203125 498.5390625 C57.63834473 497.90339355 57.9446582 497.26772461 58.26025391 496.61279297 C68.08000009 476.75579136 85.69821005 462.22222772 105.33203125 452.5390625 C106.48445313 451.92804688 107.636875 451.31703125 108.82421875 450.6875 C150.8816032 428.57307257 206.99857876 416.24163064 253.38305664 430.59082031 C271.43876843 436.50127287 288.00929146 445.01806864 302.33203125 457.5390625 C303.0384375 458.11269531 303.74484375 458.68632813 304.47265625 459.27734375 C325.84378323 476.90431659 338.68489538 504.15393013 348.14453125 529.5390625 C348.43465088 530.31596436 348.72477051 531.09286621 349.02368164 531.89331055 C350.78710573 536.73011605 352.16430618 541.52441632 353.33203125 546.5390625 C353.61304688 547.7353125 353.8940625 548.9315625 354.18359375 550.1640625 C354.56644531 551.8346875 354.56644531 551.8346875 354.95703125 553.5390625 C355.21742188 554.6734375 355.4778125 555.8078125 355.74609375 556.9765625 C355.93945312 557.8221875 356.1328125 558.6678125 356.33203125 559.5390625 C356.66203125 559.5390625 356.99203125 559.5390625 357.33203125 559.5390625 C356.5810325 543.73035613 355.70358937 527.92901048 354.789011 512.12905121 C354.56851699 508.31960281 354.35014262 504.51006067 354.13696289 500.70019531 C353.92664546 496.94207805 353.71091459 493.18430555 353.49157524 489.42670441 C353.41043906 488.0221621 353.33106712 486.61751643 353.25370979 485.21276093 C352.77188616 476.49396553 351.96227504 467.89084112 350.80256653 459.24121094 C350.06814949 453.46285378 349.60432214 447.66767192 349.128479 441.86257935 C342.41919824 360.71945342 330.58333838 276.05975933 267.33203125 145.5390625 C266.88633789 144.87551758 266.44064453 144.21197266 265.98144531 143.52832031 C256.40750181 129.35467849 245.66929207 116.75186247 233.64453125 104.6015625 C232.60087402 103.54376587 232.60087402 103.54376587 231.53613281 102.46459961 C230.88741211 101.82014893 230.23869141 101.17569824 229.5703125 100.51171875 C228.99321533 99.93687744 228.41611816 99.36203613 227.8215332 98.76977539 C226.39709346 97.32674256 226.39709346 97.32674256 224.33203125 97.5390625 C224.33203125 96.8790625 224.33203125 96.2190625 224.33203125 95.5390625 C222.73868886 94.10356524 221.07952043 92.74078923 219.39453125 91.4140625 C215.7917984 88.5337167 212.25410568 85.63197188 208.83203125 82.5390625 C203.0242423 77.32136975 196.97443845 72.39607565 190.83203125 67.578125 C186.15567429 63.90598572 181.68806179 60.08528169 177.33203125 56.0390625 C167.27841004 46.77209472 157.7424563 40.16173322 145.33203125 34.5390625 C144.6575293 34.23081543 143.98302734 33.92256836 143.28808594 33.60498047 C131.64645581 28.35642867 119.67532501 24.74593174 107.33203125 21.5390625 C106.47593262 21.31476563 105.61983398 21.09046875 104.73779297 20.859375 C63.68815968 10.23568303 21.43071514 7.78608945 -20.66796875 12.5390625 Z M168.33203125 440.5390625 C167.31206055 440.74273438 166.29208984 440.94640625 165.24121094 441.15625 C132.80009767 447.90483472 93.31130554 462.89579704 73.14453125 490.9140625 C64.08235526 505.46618743 58.7156128 522.36181515 53.33203125 538.5390625 C52.97250366 539.61849121 52.97250366 539.61849121 52.60571289 540.71972656 C52.11252983 542.20075875 51.61961626 543.68188071 51.12695312 545.16308594 C50.25982106 547.75489467 49.38037029 550.34234665 48.5 552.9296875 C44.37551614 565.09981945 40.57277006 577.30199373 37.14013672 589.68359375 C36.26670027 592.76991178 35.35144564 595.84184125 34.4296875 598.9140625 C30.07183317 613.55704408 26.54925567 628.21143504 23.48887634 643.16419983 C23.34817215 643.85122482 23.20746796 644.53824982 23.0625 645.24609375 C22.92207779 645.93219223 22.78165558 646.61829071 22.63697815 647.32518005 C21.0970592 654.78502101 19.34395624 662.19159324 17.58203125 669.6015625 C15.22472808 679.54681779 13.07528277 689.46843258 11.33203125 699.5390625 C11.14898437 700.3846875 10.9659375 701.2303125 10.77734375 702.1015625 C9.75764764 707.68305701 9.65984129 713.35444512 11.33203125 718.7890625 C14.63538498 723.33117388 18.92945585 726.63127491 23.3046875 730.10546875 C27.8449128 733.79741416 30.86293775 736.96335723 31.66064453 743.04394531 C31.74040527 743.93436523 31.82016602 744.82478516 31.90234375 745.7421875 C31.98500488 746.64098633 32.06766602 747.53978516 32.15283203 748.46582031 C32.21196777 749.14999023 32.27110352 749.83416016 32.33203125 750.5390625 C67.48105997 750.07552369 102.58601384 746.82271007 137.33203125 741.5390625 C138.74168919 741.32838342 140.15135754 741.11777398 141.56103516 740.90722656 C176.53734784 735.64272767 210.70506705 727.66643103 243.93798828 715.40527344 C246.87358459 714.34311805 249.83789099 713.42154595 252.83203125 712.5390625 C257.79081558 711.0408516 262.65532706 709.38853359 267.50390625 707.56640625 C269.8626714 706.709562 272.22630509 705.90625664 274.609375 705.12109375 C305.70359132 694.80472806 325.96310921 678.77880909 341.01831055 649.41601562 C356.266593 618.72464471 352.42027046 588.1202516 343.2890625 555.9609375 C342.4281904 552.88288052 341.66812878 549.79441046 340.93725586 546.68334961 C333.97886278 517.42413803 320.58266556 490.02140154 299.33203125 468.5390625 C298.66945313 467.81589844 298.006875 467.09273437 297.32421875 466.34765625 C278.54623259 446.27328193 250.75615803 437.4899697 223.95214844 436.40185547 C205.05811767 435.81918794 186.92667522 436.81668706 168.33203125 440.5390625 Z " fill="#121313" transform="translate(498.66796875,132.4609375)"/>
<path d="M0 0 C4.90278902 4.78605595 6.85085793 8.34325193 7.0625 15.125 C6.86640469 19.58004042 6.52830291 23.00361256 3.625 26.5625 C-22.10578096 32.36349211 -51.48004927 25.36840001 -76.99609375 21 C-78.09633125 20.81165588 -78.09633125 20.81165588 -79.21879578 20.61950684 C-82.34220129 20.08415042 -85.46521577 19.5468264 -88.58740234 19.00439453 C-96.73986613 17.60882886 -104.92536998 16.50985046 -113.125 15.4375 C-114.5156496 15.25409267 -115.90627476 15.07049996 -117.296875 14.88671875 C-120.65601558 14.44349881 -124.01538794 14.00212924 -127.375 13.5625 C-125.2390996 2.62197666 -121.2757587 -4.93336858 -112.125 -11.6875 C-80.43281871 -31.85525173 -28.40617818 -21.65971086 0 0 Z " fill="#F4DE32" transform="translate(511.375,865.4375)"/>
<path d="M0 0 C1.053582 0.00223572 1.053582 0.00223572 2.12844849 0.0045166 C18.30967167 0.0662638 33.8343733 1.13868918 47.1875 11.3125 C50.70161252 15.3113177 51.57035914 18.917796 51.453125 24.26171875 C50.88970011 28.61169035 48.5499239 31.17760922 45.26953125 33.91015625 C30.88328644 44.27334499 12.08340857 43.64762359 -4.8984375 43.57324219 C-7.80750364 43.56251842 -10.71595246 43.57319571 -13.625 43.5859375 C-45.94595337 43.61037835 -45.94595337 43.61037835 -56.875 36.25 C-59.29517306 33.82982694 -59.74327938 32.77726704 -60.25 29.375 C-60.14348702 23.01084947 -56.18231849 17.17750445 -52.2421875 12.4140625 C-47.56381323 7.96169665 -41.88646405 6.18001731 -35.8125 4.3125 C-34.69875 3.94125 -33.585 3.57 -32.4375 3.1875 C-21.68179891 0.59129629 -11.02213965 -0.05791451 0 0 Z " fill="#121310" transform="translate(676.8125,361.6875)"/>
<path d="M0 0 C4.24540614 1.8710972 5.2001553 3.67640613 7 8 C14.41909596 27.89455139 15.11941344 52.67568306 9 73 C8.64808594 74.24136719 8.29617188 75.48273438 7.93359375 76.76171875 C4.67704304 87.66552041 -0.30011741 97.77909819 -7 107 C-7.66 107 -8.32 107 -9 107 C-9.24878906 107.57878906 -9.49757813 108.15757812 -9.75390625 108.75390625 C-14.17175247 116.71710868 -22.81269624 120.91631479 -31 124 C-32.39412109 124.55107422 -32.39412109 124.55107422 -33.81640625 125.11328125 C-37.65879725 126.18349322 -41.29290268 126.34299701 -45.25 126.3125 C-46.00289307 126.30758545 -46.75578613 126.3026709 -47.53149414 126.29760742 C-53.43549237 126.17374732 -58.54294731 125.35217789 -64 123 C-64.85078125 122.63648438 -65.7015625 122.27296875 -66.578125 121.8984375 C-79.56124075 115.87333887 -86.81650278 106.16260921 -91.94140625 92.921875 C-92.29074219 91.95765625 -92.64007813 90.9934375 -93 90 C-93.29777344 89.20078125 -93.59554687 88.4015625 -93.90234375 87.578125 C-101.10232315 66.22893236 -101.33469924 34.70837715 -92 14 C-90.49697178 11.35503142 -89.00348156 9.31982075 -87 7 C-86.34 7 -85.68 7 -85 7 C-84.97072084 10.99998437 -84.95310781 14.99994076 -84.9375 19 C-84.92912109 20.12535156 -84.92074219 21.25070312 -84.91210938 22.41015625 C-84.90888672 23.51230469 -84.90566406 24.61445312 -84.90234375 25.75 C-84.89710693 26.75546875 -84.89187012 27.7609375 -84.88647461 28.796875 C-84.99617469 31.89206876 -85.35994603 34.89695306 -85.7696991 37.96466064 C-86.3761143 43.32400018 -86.18589856 48.76465857 -86.18530273 54.15332031 C-86.18748796 56.36282668 -86.20568976 58.57183164 -86.22460938 60.78125 C-86.28765696 76.42002118 -84.02714546 90.17483744 -73 102 C-72.2678125 102.53753906 -71.535625 103.07507813 -70.78125 103.62890625 C-70.1934375 104.08136719 -69.605625 104.53382813 -69 105 C-69 105.66 -69 106.32 -69 107 C-62.41461291 110.54597767 -56.61354898 111.36056046 -49.25 111.3125 C-48.35692139 111.30686035 -47.46384277 111.3012207 -46.54370117 111.29541016 C-35.0895994 111.08405284 -26.52933667 108.10893673 -18.05859375 100.18359375 C-9.69691513 91.24400213 -5.9057792 79.68567874 -3 68 C-2.7330835 66.96391602 -2.46616699 65.92783203 -2.19116211 64.86035156 C0.76454903 51.66381169 0.33358032 38.45776388 0.1875 25 C0.17241984 22.56771666 0.15873736 20.13542423 0.14648438 17.703125 C0.1137573 11.80188184 0.06382442 5.90098456 0 0 Z " fill="#101212" transform="translate(316,575)"/>
<path d="M0 0 C13.90674701 2.18357609 23.14606129 8.10950863 32.5078125 18.55078125 C34.94510543 22.20672065 34.77619724 24.07778913 34.7578125 28.42578125 C34.76554688 30.24722656 34.76554688 30.24722656 34.7734375 32.10546875 C34.51172827 35.49999147 34.09144485 37.56429372 32.5078125 40.55078125 C25.06808011 44.50067612 14.53689485 44.74032471 6.23095703 45.85839844 C3.90631228 46.17260494 1.58408597 46.50145917 -0.73828125 46.83203125 C-15.64226093 48.90708412 -30.44196305 49.76544372 -45.4921875 49.55078125 C-43.06220413 47.04033486 -40.64815817 44.82757376 -37.8046875 42.80078125 C-26.74293726 34.55549141 -17.54496919 24.98355738 -10.81640625 12.8671875 C-10.1665979 11.69724243 -10.1665979 11.69724243 -9.50366211 10.50366211 C-8.67704601 8.97825385 -7.87588989 7.43870845 -7.10375977 5.88500977 C-4.32086849 0.68147926 -4.32086849 0.68147926 0 0 Z " fill="#F4DF34" transform="translate(851.4921875,786.44921875)"/>
<path d="M0 0 C0.70360657 0.00270905 1.40721313 0.00541809 2.13214111 0.00820923 C16.93529231 0.09466296 30.32681271 1.6524688 43.3125 9.4375 C43.3125 13.4375 43.3125 13.4375 41.5 15.4375 C29.43842139 23.00554933 15.62411314 23.7609679 1.78027344 23.64331055 C-0.42004181 23.62514414 -2.61993017 23.62280119 -4.8203125 23.62304688 C-18.58070135 23.58945091 -32.1047077 22.79673711 -45.6875 20.4375 C-44.8853482 15.63269172 -43.42655098 12.60131237 -39.6875 9.4375 C-27.18301653 1.63167092 -14.50896172 -0.13077479 0 0 Z " fill="#F4DE33" transform="translate(673.6875,371.5625)"/>
<path d="M0 0 C1.25941406 -0.01675781 2.51882813 -0.03351563 3.81640625 -0.05078125 C8.53393484 0.42249832 11.85961319 1.88731191 15.375 5.0625 C16.99103613 8.48469415 16.3862301 10.70732561 15.4375 14.3125 C12.60765081 18.75940587 9.30014893 21.6185245 4.1171875 22.875 C-2.74337438 23.99509174 -9.68350283 24.47081507 -15.5625 20.3125 C-18.60245871 17.51253803 -19.84159798 15.37970197 -20.125 11.3125 C-19.94015233 8.0468578 -19.51543933 7.24690028 -17.5 4.4375 C-12.11937591 0.54513363 -6.51313657 0.02004042 0 0 Z " fill="#101212" transform="translate(525.5625,355.6875)"/>
<path d="M0 0 C3.3125 2.1875 3.3125 2.1875 5.3125 5.1875 C5.81621498 9.82167781 5.19397398 12.51113664 2.3125 16.1875 C-4.1530835 21.03668763 -11.83223311 22.00707038 -19.6875 21.1875 C-23.15490449 20.2995852 -25.86146159 18.88030641 -28.625 16.5625 C-30.31891272 12.77610685 -30.57817654 9.24261272 -29.6875 5.1875 C-22.54924863 -2.8005432 -9.62591936 -4.59298895 0 0 Z " fill="#101212" transform="translate(769.6875,341.8125)"/>
<path d="M0 0 C3.19634691 3.19634691 2.43075 7.25284876 2.44482422 11.54736328 C2.23179348 21.52257921 0.61672537 34.57491195 -5 43 C-5.45541798 33.57158273 -4.04054543 24.56921358 -2.5 15.3125 C-2.25832528 13.82109123 -2.0174343 12.32955524 -1.77734375 10.83789062 C-1.1939095 7.22375125 -0.59993893 3.6114409 0 0 Z " fill="#3C3B4D" transform="translate(217,568)"/>
<path d="M0 0 C0.99 0.495 0.99 0.495 2 1 C2.76712566 3.46319253 3.41524958 5.86787194 4 8.375 C4.17297607 9.09655273 4.34595215 9.81810547 4.52416992 10.56152344 C8.48671861 27.33662365 8.48671861 27.33662365 7 32 C0.45432517 21.20713157 -0.28894746 12.32842503 0 0 Z " fill="#3D3C4E" transform="translate(169,728)"/>
<path d="M0 0 C3.17033042 0.33967826 3.99882607 0.99869191 6.1875 3.4375 C8.56658293 6.80103104 9.13817912 8.44083187 9.125 12.5 C9.12757813 13.2940625 9.13015625 14.088125 9.1328125 14.90625 C9 17 9 17 8 19 C6.140625 18.3984375 6.140625 18.3984375 4 17 C2.734375 14.1015625 2.734375 14.1015625 1.75 10.625 C1.41484375 9.48289062 1.0796875 8.34078125 0.734375 7.1640625 C0 4 0 4 0 0 Z " fill="#3B3A4C" transform="translate(179,723)"/>
<path d="M0 0 C0.66 0.33 1.32 0.66 2 1 C1.01 1.33 0.02 1.66 -1 2 C-1.33 3.65 -1.66 5.3 -2 7 C-9.625 8 -9.625 8 -13 8 C-9.10904843 4.59541738 -4.88634235 1.75822032 0 0 Z " fill="#E8D942" transform="translate(644,376)"/>
<path d="M0 0 C0.99 0 1.98 0 3 0 C2.01 4.62 1.02 9.24 0 14 C-0.66 13.67 -1.32 13.34 -2 13 C-1.85966889 11.02043559 -1.7125877 9.04134859 -1.5625 7.0625 C-1.48128906 5.96035156 -1.40007812 4.85820313 -1.31640625 3.72265625 C-1 1 -1 1 0 0 Z " fill="#191C1C" transform="translate(512,810)"/>
<path d="M0 0 C2.375 -0.1875 2.375 -0.1875 5 0 C7.49118953 3.7367843 7.2065226 5.74451819 7.125 10.1875 C7.10695313 11.45980469 7.08890625 12.73210938 7.0703125 14.04296875 C7.03550781 15.50669922 7.03550781 15.50669922 7 17 C6.67 17 6.34 17 6 17 C6 12.71 6 8.42 6 4 C4.68 4 3.36 4 2 4 C1.67 3.34 1.34 2.68 1 2 C0.01 2.495 0.01 2.495 -1 3 C-0.67 2.01 -0.34 1.02 0 0 Z " fill="#C2B638" transform="translate(879,805)"/>
<path d="M0 0 C0.33 0.66 0.66 1.32 1 2 C3.8159849 2.46898963 3.8159849 2.46898963 7.0625 2.625 C8.71958984 2.73714844 8.71958984 2.73714844 10.41015625 2.8515625 C11.26480469 2.90054688 12.11945313 2.94953125 13 3 C13 3.66 13 4.32 13 5 C6.07 4.505 6.07 4.505 -1 4 C-0.67 2.68 -0.34 1.36 0 0 Z " fill="#CCC141" transform="translate(385,875)"/>
<path d="M0 0 C0.66 0 1.32 0 2 0 C0.74875245 5.68748885 -1.04102568 8.72847508 -5 13 C-5.33 12.34 -5.66 11.68 -6 11 C-4.78515625 8.3984375 -4.78515625 8.3984375 -3.0625 5.375 C-2.21365234 3.87066406 -2.21365234 3.87066406 -1.34765625 2.3359375 C-0.90292969 1.56507813 -0.45820312 0.79421875 0 0 Z " fill="#1D2125" transform="translate(838,783)"/>
<path d="M0 0 C0.66 0.33 1.32 0.66 2 1 C-1.625 5.875 -1.625 5.875 -5 7 C-6.68538601 8.99665314 -6.68538601 8.99665314 -8 11 C-8.66 10.67 -9.32 10.34 -10 10 C-3.84965831 2.51708428 -3.84965831 2.51708428 0 0 Z " fill="#D8CD4A" transform="translate(399,854)"/>
<path d="M0 0 C7.50769231 0.61538462 7.50769231 0.61538462 10 2.5625 C10.33 3.036875 10.66 3.51125 11 4 C7.59068103 5.13643966 6.99664544 4.86747764 3.8125 3.5625 C3.09707031 3.27503906 2.38164063 2.98757813 1.64453125 2.69140625 C1.10183594 2.46324219 0.55914063 2.23507812 0 2 C0 1.34 0 0.68 0 0 Z " fill="#1E1F10" transform="translate(859,787)"/>
<path d="M0 0 C0.66 0.99 1.32 1.98 2 3 C2.66 3 3.32 3 4 3 C4 3.99 4 4.98 4 6 C2.02 6.33 0.04 6.66 -2 7 C-1.125 2.25 -1.125 2.25 0 0 Z " fill="#E9D83F" transform="translate(630,385)"/>
<path d="M0 0 C-4.86628419 2.62030687 -9.4185702 4.3283194 -15 4 C-10.98917213 -0.01082787 -5.44022738 -0.26537695 0 0 Z " fill="#212528" transform="translate(734,852)"/>
<path d="M0 0 C0.33 1.32 0.66 2.64 1 4 C0.01 4.495 0.01 4.495 -1 5 C-2.33333333 4.33333333 -3.66666667 3.66666667 -5 3 C-6.99110401 2.61709538 -8.99100513 2.27395385 -11 2 C-11 1.67 -11 1.34 -11 1 C-9.54182203 0.83197949 -8.0834516 0.66562857 -6.625 0.5 C-5.81289063 0.4071875 -5.00078125 0.314375 -4.1640625 0.21875 C-2 0 -2 0 0 0 Z " fill="#1C1B0F" transform="translate(875,829)"/>
<path d="M0 0 C-6.93 -0.495 -6.93 -0.495 -14 -1 C-14 -1.33 -14 -1.66 -14 -2 C-8.34383017 -3.1838495 -4.8710274 -3.2473516 0 0 Z " fill="#363636" transform="translate(466,906)"/>
<path d="M0 0 C0.515625 0.2475 1.03125 0.495 1.5625 0.75 C0.9025 0.75 0.2425 0.75 -0.4375 0.75 C-0.4375 1.41 -0.4375 2.07 -0.4375 2.75 C-4.86826923 4.84230769 -4.86826923 4.84230769 -7.75 4.375 C-8.306875 4.16875 -8.86375 3.9625 -9.4375 3.75 C-3.0375 -0.31153846 -3.0375 -0.31153846 0 0 Z " fill="#D8CB43" transform="translate(410.4375,849.25)"/>
<path d="M0 0 C0 0.33 0 0.66 0 1 C-4.62 1.33 -9.24 1.66 -14 2 C-8.79460379 -1.47026414 -5.91125548 -0.87215245 0 0 Z " fill="#353736" transform="translate(608,893)"/>
<path d="M0 0 C0.33 0.66 0.66 1.32 1 2 C-0.97764782 6.06516496 -3.7373124 8.91367389 -7 12 C-5.44298069 7.32894208 -2.91552627 3.91294315 0 0 Z " fill="#313131" transform="translate(223,271)"/>
<path d="M0 0 C3.63 0.33 7.26 0.66 11 1 C11 1.33 11 1.66 11 2 C6.9472484 2.98248524 3.16138263 3.08159574 -1 3 C-0.67 2.01 -0.34 1.02 0 0 Z " fill="#191C0E" transform="translate(415,883)"/>
<path d="M0 0 C-2.64 1.98 -5.28 3.96 -8 6 C-8 5.01 -8 4.02 -8 3 C-7.34 3 -6.68 3 -6 3 C-6 2.01 -6 1.02 -6 0 C-3 -1 -3 -1 0 0 Z " fill="#19180B" transform="translate(403,852)"/>
<path d="M0 0 C3.3 0 6.6 0 10 0 C8.515 1.485 8.515 1.485 7 3 C3.3125 2.6875 3.3125 2.6875 0 2 C0 1.34 0 0.68 0 0 Z " fill="#231F0E" transform="translate(843,833)"/>
<path d="M0 0 C1.32 0.33 2.64 0.66 4 1 C2.71937515 2.7074998 1.38232443 4.37373596 0 6 C-0.66 6 -1.32 6 -2 6 C-1.34 4.02 -0.68 2.04 0 0 Z " fill="#E2D53B" transform="translate(845,792)"/>
<path d="M0 0 C3.6875 0.875 3.6875 0.875 7 2 C6.67 2.66 6.34 3.32 6 4 C1.545 3.01 1.545 3.01 -3 2 C-2.01 1.34 -1.02 0.68 0 0 Z " fill="#282928" transform="translate(359,885)"/>
<path d="M0 0 C0.495 0.144375 0.99 0.28875 1.5 0.4375 C4.97752922 1.21994407 8.45955123 1.58694764 12 2 C12 2.33 12 2.66 12 3 C8.37 3 4.74 3 1 3 C0.67 2.01 0.34 1.02 0 0 Z " fill="#090A07" transform="translate(445,841)"/>
</svg>
